<svg xmlns="http://www.w3.org/2000/svg" aria-hidden="true" style="position:absolute;width:0;height:0;overflow:hidden"><defs><symbol id="icon-caret" viewBox="0 0 32 32"><path fill="#17ff4d" d="M2.667 16C2.667 8.636 8.636 2.667 16 2.667S29.333 8.636 29.333 16a13.334 13.334 0 0 1-22.761 9.428A13.33 13.33 0 0 1 2.667 16m11.057 3.057a1.33 1.33 0 0 0 .017 1.869 1.33 1.33 0 0 0 1.869.017l4-4a1.333 1.333 0 0 0 0-1.886l-4-4a1.333 1.333 0 0 0-1.886 0l-.111.125a1.33 1.33 0 0 0 .111 1.76l3.056 3.059z" style="fill:var(--color1, #17ff4d)"/></symbol><symbol id="icon-close" viewBox="0 0 32 32"><path fill="none" stroke="#f0f8ff" stroke-linecap="round" stroke-linejoin="round" stroke-width="2.667" d="M24 8 8 24M8 8l16 16" style="stroke:var(--color2, #f0f8ff)"/></symbol><symbol id="icon-features1" viewBox="0 0 32 32"><path fill="none" stroke="#c4b5fd" stroke-linecap="round" stroke-linejoin="round" stroke-width="2.667" d="M12 4H5.333C4.597 4 4 4.597 4 5.333V12c0 .736.597 1.333 1.333 1.333H12c.736 0 1.333-.597 1.333-1.333V5.333C13.333 4.597 12.736 4 12 4m14.667 0H20c-.736 0-1.333.597-1.333 1.333V12c0 .736.597 1.333 1.333 1.333h6.667c.736 0 1.333-.597 1.333-1.333V5.333C28 4.597 27.403 4 26.667 4m0 14.667H20c-.736 0-1.333.597-1.333 1.333v6.667c0 .736.597 1.333 1.333 1.333h6.667c.736 0 1.333-.597 1.333-1.333V20c0-.736-.597-1.333-1.333-1.333m-14.667 0H5.333C4.597 18.667 4 19.264 4 20v6.667C4 27.403 4.597 28 5.333 28H12c.736 0 1.333-.597 1.333-1.333V20c0-.736-.597-1.333-1.333-1.333" style="stroke:var(--color3, #c4b5fd)"/></symbol><symbol id="icon-features2" viewBox="0 0 32 32"><path fill="none" stroke="#c4b5fd" stroke-linecap="round" stroke-linejoin="round" stroke-width="2.667" d="M16 8.704V4a1.334 1.334 0 0 1 1.334-1.334" style="stroke:var(--color3, #c4b5fd)"/><path fill="none" stroke="#c4b5fd" stroke-linecap="round" stroke-linejoin="round" stroke-width="2.667" d="M24.316 28a20 20 0 0 0 5.017-13.333 7.997 7.997 0 0 0-9.232-7.904A8 8 0 0 0 16 8.705a7.996 7.996 0 0 0-12.046 1.611 8 8 0 0 0-1.287 4.351A20.14 20.14 0 0 0 7.684 28a4 4 0 0 0 4.864.864 7.33 7.33 0 0 1 6.904 0A4 4 0 0 0 24.316 28" style="stroke:var(--color3, #c4b5fd)"/></symbol><symbol id="icon-features3" viewBox="0 0 32 32"><path fill="none" stroke="#c4b5fd" stroke-linecap="round" stroke-linejoin="round" stroke-width="2.667" d="M12 24V6.667L28 4v17.333" style="stroke:var(--color3, #c4b5fd)"/><path fill="none" stroke="#c4b5fd" stroke-linecap="round" stroke-linejoin="round" stroke-width="2.667" d="M8 28a4 4 0 1 0 0-8 4 4 0 0 0 0 8m16-2.667a4 4 0 1 0 0-8 4 4 0 0 0 0 8" style="stroke:var(--color3, #c4b5fd)"/></symbol><symbol id="icon-features4" viewBox="0 0 32 32"><path fill="none" stroke="#c4b5fd" stroke-linecap="round" stroke-linejoin="round" stroke-width="2.667" d="M5.333 18.667a1.33 1.33 0 0 1-1.328-1.49c.03-.251.13-.488.289-.684l13.2-13.6a.665.665 0 0 1 1.117.174c.059.139.07.294.03.44l-2.56 8.027a1.34 1.34 0 0 0 .155 1.228 1.34 1.34 0 0 0 1.099.571h9.333a1.33 1.33 0 0 1 1.328 1.49 1.33 1.33 0 0 1-.289.683l-13.2 13.6a.665.665 0 0 1-1.117-.174.67.67 0 0 1-.03-.44l2.56-8.027a1.34 1.34 0 0 0-.155-1.228 1.34 1.34 0 0 0-1.099-.572H5.333z" style="stroke:var(--color3, #c4b5fd)"/></symbol><symbol id="icon-features5" viewBox="0 0 32 32"><path fill="none" stroke="#c4b5fd" stroke-linecap="round" stroke-linejoin="round" stroke-width="2.667" d="M15.366 3.06A.72.72 0 0 1 16 2.667a.71.71 0 0 1 .634.393l3.08 6.239a2.83 2.83 0 0 0 2.127 1.546l6.888 1.008a.706.706 0 0 1 .392 1.206L24.14 17.91a2.84 2.84 0 0 0-.815 2.504l1.176 6.853a.706.706 0 0 1-1.028.747l-6.157-3.237a2.83 2.83 0 0 0-2.63 0L8.53 28.014a.71.71 0 0 1-.987-.36.7.7 0 0 1-.041-.387l1.175-6.852a2.82 2.82 0 0 0-.815-2.505l-4.981-4.849a.71.71 0 0 1-.181-.726.7.7 0 0 1 .574-.482l6.887-1.007c.454-.066.885-.241 1.255-.511s.671-.625.874-1.036l3.079-6.239z" style="stroke:var(--color3, #c4b5fd)"/></symbol><symbol id="icon-features6" viewBox="0 0 32 32"><path fill="none" stroke="#c4b5fd" stroke-linecap="round" stroke-linejoin="round" stroke-width="2.667" d="M18.808 7.404a2.67 2.67 0 0 0 2.384 0l4.879-2.44a1.34 1.34 0 0 1 1.298.059A1.33 1.33 0 0 1 28 6.159v17.019a1.34 1.34 0 0 1-.737 1.192l-6.071 3.036a2.67 2.67 0 0 1-2.384 0l-5.616-2.808a2.67 2.67 0 0 0-2.384 0l-4.879 2.44a1.33 1.33 0 0 1-1.299-.06 1.33 1.33 0 0 1-.631-1.136V8.825a1.34 1.34 0 0 1 .737-1.192l6.071-3.036a2.67 2.67 0 0 1 2.384 0zM20 7.685v20m-8-23.37v20" style="stroke:var(--color3, #c4b5fd)"/></symbol><symbol id="icon-features7" viewBox="0 0 32 32"><path fill="none" stroke="#c4b5fd" stroke-linecap="round" stroke-linejoin="round" stroke-width="2.667" d="M14.667 8a2.667 2.667 0 1 0 0-5.334 2.667 2.667 0 0 0 0 5.334M24 13.333a2.667 2.667 0 1 0 0-5.334 2.667 2.667 0 0 0 0 5.334M26.667 24a2.667 2.667 0 1 0 0-5.334 2.667 2.667 0 0 0 0 5.334M12 13.333a6.67 6.67 0 0 1 6.159 4.115c.335.809.507 1.676.507 2.551v4.667a4.671 4.671 0 0 1-7.137 3.957 4.67 4.67 0 0 1-1.983-2.564q-.854-2.754-3.6-3.607a4.667 4.667 0 0 1 1.387-9.12z" style="stroke:var(--color3, #c4b5fd)"/></symbol><symbol id="icon-features8" viewBox="0 0 32 32"><path fill="none" stroke="#c4b5fd" stroke-linecap="round" stroke-linejoin="round" stroke-width="2.667" d="M21.333 9.333h8v8" style="stroke:var(--color3, #c4b5fd)"/><path fill="none" stroke="#c4b5fd" stroke-linecap="round" stroke-linejoin="round" stroke-width="2.667" d="M29.333 9.333 18 20.666l-6.667-6.667-8.667 8.667" style="stroke:var(--color3, #c4b5fd)"/></symbol><symbol id="icon-menu" viewBox="0 0 32 32"><path fill="none" stroke="#f0f8ff" stroke-linecap="round" stroke-linejoin="round" stroke-width="2.667" d="M5.333 8h21.333M5.333 16h21.333M5.333 24h21.333" style="stroke:var(--color2, #f0f8ff)"/></symbol></defs></svg>