<svg xmlns="http://www.w3.org/2000/svg" aria-hidden="true" style="position:absolute;width:0;height:0;overflow:hidden"><defs><symbol id="icon-caret" viewBox="0 0 32 32"><path fill="#17ff4d" d="M2.667 16C2.667 8.636 8.636 2.667 16 2.667S29.333 8.636 29.333 16a13.334 13.334 0 0 1-22.761 9.428A13.33 13.33 0 0 1 2.667 16m11.057 3.057a1.33 1.33 0 0 0 .017 1.869 1.33 1.33 0 0 0 1.869.017l4-4a1.333 1.333 0 0 0 0-1.886l-4-4a1.333 1.333 0 0 0-1.886 0l-.111.125a1.33 1.33 0 0 0 .111 1.76l3.056 3.059z" style="fill:var(--color1, #17ff4d)"/></symbol><symbol id="icon-close" viewBox="0 0 32 32"><path fill="none" stroke="#f0f8ff" stroke-linecap="round" stroke-linejoin="round" stroke-width="2.667" d="M24 8 8 24M8 8l16 16" style="stroke:var(--color2, #f0f8ff)"/></symbol><symbol id="icon-menu" viewBox="0 0 32 32"><path fill="none" stroke="#f0f8ff" stroke-linecap="round" stroke-linejoin="round" stroke-width="2.667" d="M5.333 8h21.333M5.333 16h21.333M5.333 24h21.333" style="stroke:var(--color2, #f0f8ff)"/></symbol></defs></svg>